<svg xmlns="http://www.w3.org/2000/svg" xmlns:xlink="http://www.w3.org/1999/xlink" width="500" zoomAndPan="magnify" viewBox="0 0 375 374.999991" height="500" preserveAspectRatio="xMidYMid meet" version="1.0"><defs><g/><clipPath id="6eec972277"><path d="M 107.675781 128.726562 L 267.425781 128.726562 L 267.425781 298.976562 L 107.675781 298.976562 Z M 107.675781 128.726562 " clip-rule="nonzero"/></clipPath></defs><rect x="-37.5" width="450" fill="#ffffff" y="-37.499999" height="449.999989" fill-opacity="1"/><rect x="-37.5" width="450" fill="#ffffff" y="-37.499999" height="449.999989" fill-opacity="1"/><g fill="#000000" fill-opacity="1"><g transform="translate(133.488615, 236.681359)"><g><path d="M -0.875 -135.296875 L 50.390625 -135.296875 L 50.390625 -100.78125 L 49.859375 -100.78125 C 49.515625 -100.78125 49.140625 -100.78125 48.734375 -100.78125 C 48.328125 -100.78125 48.007812 -100.78125 47.78125 -100.78125 C 47.425781 -100.664062 46.664062 -100.609375 45.5 -100.609375 L 45.15625 -100.609375 L 45.15625 -101.125 C 45.15625 -101.820312 45.125 -102.75 45.0625 -103.90625 C 45.007812 -105.070312 44.925781 -106.410156 44.8125 -107.921875 C 44.695312 -109.554688 44.519531 -111.15625 44.28125 -112.71875 C 44.050781 -114.289062 43.765625 -115.890625 43.421875 -117.515625 C 42.484375 -120.773438 41.257812 -123.679688 39.75 -126.234375 C 38.238281 -128.796875 36.148438 -130.425781 33.484375 -131.125 C 32.660156 -131.351562 31.8125 -131.523438 30.9375 -131.640625 C 30.070312 -131.753906 29.175781 -131.867188 28.25 -131.984375 C 27.4375 -131.984375 26.59375 -132.015625 25.71875 -132.078125 C 24.84375 -132.140625 23.941406 -132.171875 23.015625 -132.171875 L 23.015625 -71.84375 L 34.171875 -71.84375 L 34.875 -66.953125 L 23.015625 -66.953125 L 23.015625 -3.65625 L 29.125 -3.65625 L 29.125 -0.171875 L 1.046875 -0.171875 L 1.046875 -3.65625 L 7.5 -3.65625 L 7.5 -129.71875 C 7.5 -130.070312 7.441406 -130.363281 7.328125 -130.59375 C 6.972656 -131.519531 6.503906 -132.046875 5.921875 -132.171875 C 5.804688 -132.171875 5.601562 -132.195312 5.3125 -132.25 C 5.019531 -132.3125 4.46875 -132.34375 3.65625 -132.34375 L -0.875 -132.34375 Z M -0.875 -135.296875 "/></g></g></g><g clip-path="url(#6eec972277)"><path fill="#737373" d="M 204.679688 282.777344 C 200.785156 282.777344 197.015625 279.125 195.714844 274.09375 C 194.960938 271.183594 195.132812 268.242188 196.195312 265.816406 C 197.164062 263.601562 198.777344 262.101562 200.730469 261.597656 C 201.210938 261.472656 201.710938 261.40625 202.210938 261.40625 C 206.105469 261.40625 209.878906 265.0625 211.179688 270.09375 C 212.675781 275.882812 210.425781 281.488281 206.164062 282.589844 C 205.679688 282.714844 205.179688 282.777344 204.679688 282.777344 Z M 112.96875 204.765625 C 113.117188 202.753906 114.304688 200.902344 116.3125 199.550781 C 118.21875 198.269531 120.691406 197.5625 123.277344 197.5625 C 123.636719 197.5625 124.007812 197.578125 124.371094 197.605469 C 127.171875 197.8125 129.773438 198.804688 131.695312 200.40625 C 131.816406 200.507812 131.933594 200.609375 132.050781 200.71875 C 133.839844 202.351562 134.742188 204.359375 134.59375 206.371094 C 134.445312 208.382812 133.253906 210.234375 131.246094 211.585938 C 129.339844 212.867188 126.867188 213.574219 124.285156 213.574219 C 123.921875 213.574219 123.554688 213.5625 123.191406 213.535156 C 120.1875 213.3125 117.460938 212.207031 115.507812 210.421875 C 113.71875 208.785156 112.820312 206.777344 112.96875 204.765625 Z M 149.097656 202.496094 C 147.824219 202.496094 146.761719 202.574219 145.84375 202.742188 C 145.3125 202.835938 144.769531 202.886719 144.226562 202.886719 C 141.914062 202.886719 139.914062 201.984375 138.5625 201.15625 C 137.847656 199.632812 136.800781 198.238281 135.449219 197 C 132.660156 194.457031 128.859375 192.886719 124.742188 192.582031 C 124.257812 192.546875 123.765625 192.527344 123.28125 192.527344 C 119.652344 192.527344 116.269531 193.515625 113.503906 195.375 C 110.183594 197.605469 108.210938 200.8125 107.945312 204.394531 C 107.679688 207.980469 109.160156 211.4375 112.113281 214.136719 C 112.285156 214.292969 112.464844 214.449219 112.644531 214.601562 C 115.363281 216.863281 118.976562 218.269531 122.816406 218.554688 C 123.304688 218.589844 123.796875 218.609375 124.28125 218.609375 C 127.910156 218.609375 131.289062 217.625 134.058594 215.761719 C 136.394531 214.191406 138.078125 212.121094 138.957031 209.75 C 141.070312 208.6875 143.007812 207.976562 144.578125 207.691406 C 145.574219 207.511719 146.664062 207.421875 147.820312 207.421875 C 154.042969 207.421875 161.3125 209.988281 167.152344 212.050781 C 171.199219 213.480469 174.394531 214.609375 176.40625 214.609375 C 176.691406 214.609375 176.941406 214.589844 177.183594 214.546875 L 185.097656 213.113281 L 185.097656 221.15625 C 185.097656 223.152344 186.875 226.265625 189.335938 230.578125 C 192.847656 236.71875 197.652344 245.128906 197.652344 252.007812 C 197.652344 253.601562 197.296875 255.632812 196.628906 257.902344 C 194.453125 259.191406 192.714844 261.214844 191.585938 263.796875 C 190.070312 267.25 189.808594 271.355469 190.839844 275.355469 C 192.707031 282.570312 198.539062 287.808594 204.707031 287.808594 C 205.292969 287.808594 205.878906 287.757812 206.457031 287.664062 C 209.421875 296.484375 208.433594 297.671875 208.554688 298.101562 C 208.6875 298.570312 209.152344 299.003906 211.394531 298.363281 C 213.636719 297.726562 213.804688 297.117188 213.671875 296.644531 C 213.546875 296.210938 212.058594 295.71875 209.917969 286.472656 C 215.261719 283.539062 217.964844 276.230469 216.050781 268.832031 C 214.503906 262.84375 210.257812 258.15625 205.175781 256.78125 C 203.8125 255.265625 202.296875 252.898438 202.296875 249.878906 C 202.296875 246.898438 201.164062 242.984375 199.847656 238.449219 C 198.257812 232.964844 196.457031 226.75 196.457031 221.15625 L 196.457031 211.054688 L 207.507812 209.054688 C 217.085938 207.320312 231.09375 204.101562 244.980469 200.449219 C 250.996094 198.867188 256.410156 197.34375 260.226562 196.164062 C 262.207031 195.550781 263.746094 195.035156 264.800781 194.632812 C 266.042969 194.15625 267.324219 193.660156 267.113281 192.488281 C 266.898438 191.289062 265.464844 191.289062 263.945312 191.289062 C 255.636719 191.289062 224.238281 194.480469 205.480469 197.875 L 196.457031 199.511719 L 196.457031 190.335938 C 196.457031 180.601562 195.785156 166.246094 194.664062 151.929688 C 194.179688 145.730469 193.648438 140.128906 193.167969 136.164062 C 192.917969 134.105469 192.683594 132.5 192.472656 131.390625 C 192.226562 130.082031 191.96875 128.734375 190.777344 128.734375 C 189.582031 128.734375 189.328125 130.082031 189.078125 131.390625 C 188.867188 132.5 188.636719 134.105469 188.386719 136.164062 C 187.90625 140.128906 187.371094 145.730469 186.886719 151.929688 C 185.765625 166.246094 185.097656 180.601562 185.097656 190.335938 L 185.097656 201.570312 L 175.15625 203.367188 C 173.253906 203.714844 171.140625 203.878906 168.703125 203.878906 C 164.964844 203.878906 161.183594 203.492188 157.53125 203.113281 C 154.449219 202.796875 151.539062 202.496094 149.097656 202.496094 " fill-opacity="1" fill-rule="nonzero"/></g><g fill="#000000" fill-opacity="1"><g transform="translate(202.718502, 236.681359)"><g><path d="M 56.84375 -33.828125 C 57.769531 -33.242188 58.378906 -32.398438 58.671875 -31.296875 C 58.960938 -30.191406 59.109375 -29.40625 59.109375 -28.9375 C 59.691406 -23.59375 58.847656 -18.332031 56.578125 -13.15625 C 54.304688 -7.988281 51.140625 -4.066406 47.078125 -1.390625 C 43.585938 1.046875 39.578125 2.265625 35.046875 2.265625 C 29.578125 2.265625 24.632812 0.40625 20.21875 -3.3125 C 17.195312 -5.988281 14.234375 -10 11.328125 -15.34375 C 3.890625 -29.875 0.519531 -46.960938 1.21875 -66.609375 C 1.800781 -77.296875 3.019531 -86.882812 4.875 -95.375 C 6.738281 -103.863281 9.296875 -111.242188 12.546875 -117.515625 C 13.367188 -119.140625 14.359375 -120.828125 15.515625 -122.578125 C 18.648438 -127.453125 22.253906 -131.054688 26.328125 -133.390625 C 30.160156 -135.828125 34.984375 -137.160156 40.796875 -137.390625 C 40.910156 -137.390625 41 -137.390625 41.0625 -137.390625 C 41.125 -137.390625 41.210938 -137.390625 41.328125 -137.390625 C 48.535156 -137.390625 54.113281 -133.378906 58.0625 -125.359375 C 58.988281 -123.503906 59.769531 -121.441406 60.40625 -119.171875 C 61.050781 -116.910156 61.429688 -114.554688 61.546875 -112.109375 C 62.128906 -106.410156 62.039062 -101.671875 61.28125 -97.890625 C 60.53125 -94.117188 59.863281 -91.65625 59.28125 -90.5 C 58.695312 -88.863281 58 -87.289062 57.1875 -85.78125 C 56.375 -84.269531 55.269531 -83.050781 53.875 -82.125 C 52.71875 -81.425781 51.410156 -80.898438 49.953125 -80.546875 C 48.503906 -80.203125 47.3125 -80.671875 46.375 -81.953125 C 45.789062 -82.878906 45.757812 -83.835938 46.28125 -84.828125 C 46.8125 -85.816406 47.3125 -86.71875 47.78125 -87.53125 C 48.707031 -89.15625 49.460938 -91.070312 50.046875 -93.28125 C 50.617188 -95.257812 50.9375 -97.289062 51 -99.375 C 51.0625 -101.46875 51.03125 -103.5625 50.90625 -105.65625 C 50.789062 -109.03125 50.382812 -112.375 49.6875 -115.6875 C 48.988281 -119 48.003906 -122.164062 46.734375 -125.1875 C 46.265625 -126.238281 45.476562 -127.632812 44.375 -129.375 C 43.269531 -131.113281 41.847656 -132.046875 40.109375 -132.171875 C 39.984375 -132.171875 39.890625 -132.171875 39.828125 -132.171875 C 39.773438 -132.171875 39.75 -132.171875 39.75 -132.171875 C 37.195312 -132.171875 34.960938 -131.238281 33.046875 -129.375 C 31.128906 -127.507812 29.5 -125.238281 28.15625 -122.5625 C 26.820312 -119.894531 25.75 -117.28125 24.9375 -114.71875 C 24.125 -112.164062 23.539062 -110.191406 23.1875 -108.796875 C 19.695312 -96.128906 17.894531 -81.253906 17.78125 -64.171875 C 17.664062 -50.335938 18.597656 -38.363281 20.578125 -28.25 L 20.75 -28.078125 C 21.445312 -24.472656 22.316406 -20.835938 23.359375 -17.171875 C 24.410156 -13.515625 26.039062 -10.40625 28.25 -7.84375 C 30.457031 -5.289062 33.421875 -4.015625 37.140625 -4.015625 C 41.554688 -4.015625 44.984375 -5.753906 47.421875 -9.234375 C 50.328125 -13.078125 51.488281 -18.019531 50.90625 -24.0625 C 50.90625 -24.40625 50.847656 -24.695312 50.734375 -24.9375 C 50.617188 -25.863281 50.5625 -26.789062 50.5625 -27.71875 C 50.5625 -28.65625 50.675781 -29.585938 50.90625 -30.515625 C 51.726562 -32.953125 53.179688 -34.171875 55.265625 -34.171875 C 55.617188 -34.171875 56.144531 -34.054688 56.84375 -33.828125 Z M 56.84375 -33.828125 "/></g></g></g></svg>